<?xml version="1.0" encoding="UTF-8"?>
<!DOCTYPE svg PUBLIC "-//W3C//DTD SVG 1.1//EN" "http://www.w3.org/Graphics/SVG/1.1/DTD/svg11.dtd">
<svg xmlns="http://www.w3.org/2000/svg" xmlns:xlink="http://www.w3.org/1999/xlink" viewBox="0 0 600 360">
  <g id="scruffy_graph">
    <g id="background" transform="translate(0.0, 0.0)">
      <rect width="600.0" height="360.0" x="0" y="0" fill="#ffffff"/>
    </g>
    <g id="title" transform="translate(30.0, 7.2)">
    </g>
    <g id="view" transform="translate(12.0, 93.6)">
      <g>
        <g id="values" transform="translate(0.0, 4.752)">
          <text x="96.12" y="211.464" font-size="16.91712" font-family="Helvetica" fill="#000000" text-anchor="end">0.00</text>
          <text x="96.12" y="158.598" font-size="16.91712" font-family="Helvetica" fill="#000000" text-anchor="end">11,430.61</text>
          <text x="96.12" y="105.732" font-size="16.91712" font-family="Helvetica" fill="#000000" text-anchor="end">22,861.22</text>
          <text x="96.12" y="52.866" font-size="16.91712" font-family="Helvetica" fill="#000000" text-anchor="end">34,291.83</text>
          <text x="96.12" y="0.0" font-size="16.91712" font-family="Helvetica" fill="#000000" text-anchor="end">45,722.45</text>
        </g>
        <g id="grid" transform="translate(106.8, 0.0)">
          <line x1="0" y1="0.0" x2="427.2" y2="0.0" style="stroke: #000000; stroke-width: 0.5;"/>
          <line x1="0" y1="52.866" x2="427.2" y2="52.866" style="stroke: #000000; stroke-width: 0.5;"/>
          <line x1="0" y1="105.732" x2="427.2" y2="105.732" style="stroke: #000000; stroke-width: 0.5;"/>
          <line x1="0" y1="158.598" x2="427.2" y2="158.598" style="stroke: #000000; stroke-width: 0.5;"/>
          <line x1="0" y1="211.464" x2="427.2" y2="211.464" style="stroke: #000000; stroke-width: 0.5;"/>
        </g>
        <g id="labels" transform="translate(106.8, 218.592)">
          <text x="0.0" y="19.008" font-size="17.1072" font-family="Helvetica" fill="#000000" text-anchor="middle">5</text>
          <text x="47.4666666666667" y="19.008" font-size="17.1072" font-family="Helvetica" fill="#000000" text-anchor="middle">10</text>
          <text x="94.9333333333333" y="19.008" font-size="17.1072" font-family="Helvetica" fill="#000000" text-anchor="middle">15</text>
          <text x="142.4" y="19.008" font-size="17.1072" font-family="Helvetica" fill="#000000" text-anchor="middle">20</text>
          <text x="189.866666666667" y="19.008" font-size="17.1072" font-family="Helvetica" fill="#000000" text-anchor="middle">25</text>
          <text x="237.333333333333" y="19.008" font-size="17.1072" font-family="Helvetica" fill="#000000" text-anchor="middle">30</text>
          <text x="284.8" y="19.008" font-size="17.1072" font-family="Helvetica" fill="#000000" text-anchor="middle">35</text>
          <text x="332.266666666667" y="19.008" font-size="17.1072" font-family="Helvetica" fill="#000000" text-anchor="middle">40</text>
          <text x="379.733333333333" y="19.008" font-size="17.1072" font-family="Helvetica" fill="#000000" text-anchor="middle">45</text>
          <text x="427.2" y="19.008" font-size="17.1072" font-family="Helvetica" fill="#000000" text-anchor="middle">50</text>
        </g>
        <g id="graphs" transform="translate(106.8, 0.0)">
          <g id="component_graphs_graph_0" class="graph_layer">
            <polyline points="0.0,0.0 8.71836734693878,129.870353756246 17.4367346938776,132.402263342557 26.1551020408163,121.706768339978 34.8734693877551,122.416143712146 43.5918367346939,126.54162470322 52.3102040816327,141.027611410415 61.0285714285714,126.551429347544 69.7469387755102,124.484092133898 78.465306122449,132.576186754415 87.1836734693878,137.970099226685 95.9020408163265,135.005584250972 104.620408163265,138.687540096957 113.338775510204,144.218050408755 122.057142857143,141.264670515487 130.775510204082,142.648959742101 139.49387755102,136.654669890315 148.212244897959,140.189451863789 156.930612244898,139.529297796539 165.648979591837,141.41264825131 174.367346938776,149.040957572441 183.085714285714,152.291523744617 191.804081632653,153.852427472755 200.522448979592,153.289210205363 209.240816326531,153.424355495815 217.959183673469,155.491507571707 226.677551020408,156.020481139215 235.395918367347,155.193893579717 244.114285714286,155.794120273385 252.832653061225,158.709269174727 261.551020408163,159.828842688946 270.269387755102,160.899692856152 278.987755102041,161.42532819169 287.70612244898,161.897155150602 296.424489795918,162.093866469327 305.142857142857,162.093866469327 313.861224489796,162.093866469327 322.579591836735,162.112067643171 331.297959183674,162.112067643171 340.016326530612,162.112067643171 348.734693877551,162.112067643171 357.45306122449,162.112067643171 366.171428571429,162.112067643171 374.889795918367,162.112067643171 383.608163265306,162.112067643171 392.326530612245,162.112067643171 401.044897959184,162.112067643171 409.763265306123,162.112067643171 418.481632653061,162.112067643171 427.2,162.112067643171" fill="none" stroke="red" stroke-width="2"/>
          </g>
        </g>
      </g>
    </g>
    <g id="legend" transform="translate(30.0, 46.8)">
      <rect x="282.2" y="0" width="10.8" height="10.8" fill="red"/>
      <text x="301.64" y="10.206" font-size="13.608" font-family="Helvetica" style="color: #000000" fill="#000000">Length</text>
    </g>
  </g>
</svg>
